<?xml version="1.0" encoding="utf-8"?>
<!-- Generator: Adobe Illustrator 24.3.0, SVG Export Plug-In . SVG Version: 6.00 Build 0)  -->
<svg version="1.1" id="Layer_1" xmlns="http://www.w3.org/2000/svg" xmlns:xlink="http://www.w3.org/1999/xlink" x="0px" y="0px"
	 viewBox="0 0 200 206" style="enable-background:new 0 0 200 206;" xml:space="preserve" >
<g>
	<path d="M177.48,89.62h-15.34c2.76-1.49,5.3-3.24,7.6-5.28c4-3.55,7.16-7.85,9.51-12.91c2.34-5.06,3.5-10.82,3.5-17.27
		c0-6.3-1.17-12.01-3.5-17.1c-2.34-5.1-5.51-9.46-9.51-13.08c-4-3.61-8.7-6.41-14.08-8.4c-5.39-1.98-11.12-2.97-17.22-2.97
		c-6.09,0-11.84,1-17.21,2.97c-5.39,1.99-10.08,4.79-14.09,8.4c-2.21,2-4.16,4.23-5.86,6.68V7.57L65.84,32.69
		c-1.04-3.02-2.14-5.64-3.43-7.83c-1.27-2.2-2.82-4.01-4.66-5.45c-1.83-1.43-3.98-2.48-6.45-3.16c-2.47-0.68-5.42-1.03-8.86-1.03
		c-5.65,0-10.48,1.01-14.47,3c-3.98,1.98-7.23,4.7-9.74,8.12c-2.51,3.43-4.32,7.42-5.44,11.96c-1.12,4.54-1.67,9.37-1.67,14.47
		v36.84H42.2c-1.96,0.45-3.87,1.01-5.74,1.7c-5.39,1.99-10.09,4.79-14.09,8.4c-4,3.61-7.17,7.98-9.51,13.08
		c-2.34,5.09-3.51,10.8-3.51,17.11c0,6.45,1.17,12.2,3.51,17.27c2.34,5.07,5.5,9.37,9.51,12.91c4,3.55,8.7,6.25,14.09,8.13
		c5.38,1.88,11.12,2.81,17.2,2.81c6.1,0,11.83-0.94,17.22-2.81c4.7-1.64,8.88-3.91,12.52-6.82l-1.35,8.36h28.16l3.4-34.22
		c0.15-1.63,0.27-3.25,0.37-4.84c0.11-1.59,0.23-3.2,0.37-4.83l13.18,43.89h17l14.03-43.89l3.93,43.89h28.16L177.48,89.62z
		 M123.85,48.58c0.71-1.88,1.7-3.55,2.98-5c1.28-1.44,2.83-2.58,4.67-3.4c1.84-0.81,3.94-1.22,6.27-1.22c2.34,0,4.43,0.41,6.27,1.22
		c1.84,0.82,3.4,1.96,4.68,3.4c1.27,1.45,2.27,3.12,2.98,5c0.71,1.88,1.06,3.87,1.06,6c0,4.62-1.38,8.33-4.14,11.16
		c-2.77,2.84-6.38,4.26-10.84,4.26c-4.46,0-8.08-1.42-10.84-4.26c-2.76-2.83-4.14-6.54-4.14-11.16
		C122.79,52.45,123.13,50.45,123.85,48.58z M94.48,46.93c-0.62,2.02-1.03,5.42-1.03,7.22c0,2.13,0.14,4.18,0.4,6.16H67.89
		L94.48,46.93z M34.09,55.6c0-1.73,0.08-3.35,0.26-4.88c0.17-1.53,0.55-2.87,1.14-4.01c0.6-1.14,1.43-2.05,2.49-2.72
		c1.06-0.68,2.53-1,4.39-1c1.78,0,3.2,0.35,4.27,1.07c1.06,0.71,1.86,1.69,2.41,2.94c0.55,1.24,0.91,2.62,1.08,4.15
		c0.17,1.53,0.26,3.1,0.26,4.72v4.44h-16.3V55.6z M63.83,141.47c-2.77,2.84-6.38,4.26-10.85,4.26c-4.46,0-8.07-1.42-10.83-4.26
		c-2.77-2.83-4.15-6.55-4.15-11.16c0-2.12,0.35-4.12,1.06-6c0.71-1.88,1.71-3.55,2.98-5c1.27-1.45,2.83-2.59,4.67-3.4
		c1.85-0.81,3.94-1.22,6.27-1.22c2.34,0,4.43,0.41,6.27,1.22c1.84,0.81,3.4,1.95,4.68,3.4c1.27,1.45,2.26,3.12,2.97,5
		c0.71,1.87,1.07,3.87,1.07,6C67.98,134.92,66.59,138.64,63.83,141.47z M84.28,99.71c-4-3.61-8.69-6.41-14.07-8.4
		c-1.88-0.69-3.79-1.25-5.75-1.7h29.89l-3.01,18.58C89.37,105.02,87.03,102.19,84.28,99.71z M135.35,131.69l-9.94-37.82
		c3.94,0.93,8.05,1.41,12.35,1.41c2.72,0,5.38-0.2,7.96-0.57L135.35,131.69z"/>

</g>
</svg>
